# xmcd CD database file
#
# Track frame offsets:
#	150
#	17980
#	45060
#	69625
#	91852
#	107675
#	131295
#	145187
#	167375
#	180475
#	209885
#	225950
#	242532
#	267872
#	282197
#	298082
#	330590
#	344205
#
# Disc length: 4792 seconds
#
# Revision: 2
# Processed by: cddbd v1.5.2PL0 Copyright (c) Steve Scherf et al.
# Submitted via: CDex 1.70beta2
#
DISCID=0012b612
DTITLE=Carmen McRae - Carmen Sings Monk
DYEAR=1988
DGENRE=Jazz
TTITLE0=Get it Straight
TTITLE1=Dear Ruby
TTITLE2=It's Over Now
TTITLE3=Monkery's Blues
TTITLE4=You Know Who
TTITLE5=Little Butterfly
TTITLE6=Listen to Monk
TTITLE7=How I Wish
TTITLE8=Man, That Was A Dream
TTITLE9='Round Midnight
TTITLE10=Still We Dream
TTITLE11=Suddenly
TTITLE12=Looking Back
TTITLE13=Suddenly-alternate cut
TTITLE14=Get It Straight-alternate cut
TTITLE15='Round Midnight-alternate cut
TTITLE16=Listen to Monk-alternate cut
TTITLE17=Man, That Was A Dream-alternate cut
EXTD=YEAR: 1988
EXTT0=
EXTT1=
EXTT2=
EXTT3=
EXTT4=
EXTT5=
EXTT6=
EXTT7=
EXTT8=
EXTT9=
EXTT10=
EXTT11=
EXTT12=
EXTT13=
EXTT14=
EXTT15=
EXTT16=
EXTT17=
PLAYORDER=
